<svg width="3220" height="2503" viewBox="0 0 3220 2503" fill="none" xmlns="http://www.w3.org/2000/svg">
<path d="M3137.93 683.991C2436.72 641.401 2176.78 88.216 2176.78 88.216C1783.55 282.257 2075.15 1059.6 1397.71 1536.76" stroke="white" stroke-width="0.5" stroke-miterlimit="10" stroke-linecap="round"/>
<path d="M1397.71 1536.76C2062.66 1081.02 1794.41 332.474 2192.09 133.259C2192.09 133.259 2455.32 658.984 3138.08 683.541" stroke="white" stroke-width="0.5" stroke-miterlimit="10" stroke-linecap="round"/>
<path d="M1397.71 1536.76C2050.01 1102.78 1805.01 383.426 2207.07 179.216C2207.07 179.216 2473.69 677.262 3137.98 683.844" stroke="white" stroke-width="0.5" stroke-miterlimit="10" stroke-linecap="round"/>
<path d="M1397.71 1536.76C2037.4 1124.57 1815.62 434.371 2222.05 225.17C2222.05 225.17 2492.06 695.548 3137.86 684.179" stroke="white" stroke-width="0.5" stroke-miterlimit="10" stroke-linecap="round"/>
<path d="M1397.71 1536.76C2024.9 1145.98 1826.49 484.593 2237.36 270.212C2237.36 270.212 2510.69 713.123 3138.03 683.681" stroke="white" stroke-width="0.5" stroke-miterlimit="10" stroke-linecap="round"/>
<path d="M1397.71 1536.76C2012.28 1167.76 1837.1 535.533 2252.33 316.165C2252.33 316.165 2529.05 731.414 3137.91 684.03" stroke="white" stroke-width="0.5" stroke-miterlimit="10" stroke-linecap="round"/>
<path d="M1397.71 1536.76C1999.77 1189.19 1847.95 585.777 2267.63 361.207C2267.63 361.207 2547.66 748.963 3138.1 683.483" stroke="white" stroke-width="0.5" stroke-miterlimit="10" stroke-linecap="round"/>
<path d="M1397.71 1536.76C1987.15 1210.98 1858.55 636.739 2282.61 407.204C2282.61 407.204 2566.02 767.298 3137.96 683.885" stroke="white" stroke-width="0.5" stroke-miterlimit="10" stroke-linecap="round"/>
<path d="M1397.71 1536.76C1974.57 1232.61 1869.26 687.38 2297.72 452.79C2297.72 452.79 2584.49 785.304 3137.96 683.885" stroke="white" stroke-width="0.5" stroke-miterlimit="10" stroke-linecap="round"/>
<path d="M1397.71 1536.76C1962.01 1254.25 1879.97 738.035 2312.83 498.374C2312.83 498.374 2602.96 803.292 3137.96 683.885" stroke="white" stroke-width="0.5" stroke-miterlimit="10" stroke-linecap="round"/>
<path d="M1397.71 1536.76C1949.41 1275.88 1890.69 788.706 2327.94 543.976C2327.94 543.976 2621.42 821.306 3137.96 683.885" stroke="white" stroke-width="0.5" stroke-miterlimit="10" stroke-linecap="round"/>
<path d="M1397.71 1536.76C1936.84 1297.52 1901.4 839.359 2343.05 589.56C2343.05 589.56 2639.89 839.292 3137.96 683.885" stroke="white" stroke-width="0.5" stroke-miterlimit="10" stroke-linecap="round"/>
<path d="M1397.71 1536.76C1924.27 1319.16 1912.11 890.014 2358.16 635.144C2358.16 635.144 2658.36 857.297 3137.96 683.885" stroke="white" stroke-width="0.5" stroke-miterlimit="10" stroke-linecap="round"/>
<path d="M1397.71 1536.76C1911.7 1340.79 1922.82 940.659 2373.28 680.734C2373.28 680.734 2676.83 875.307 3137.96 683.885" stroke="white" stroke-width="0.5" stroke-miterlimit="10" stroke-linecap="round"/>
<path d="M1397.71 1536.76C1899.12 1362.42 1933.52 991.313 2388.4 726.322C2388.4 726.322 2695.31 893.297 3137.96 683.885" stroke="white" stroke-width="0.5" stroke-miterlimit="10" stroke-linecap="round"/>
<path d="M1397.71 1536.76C1886.55 1384.06 1944.25 1041.98 2403.49 771.916C2403.49 771.916 2713.75 911.304 3137.96 683.885" stroke="white" stroke-width="0.5" stroke-miterlimit="10" stroke-linecap="round"/>
<path d="M1397.71 1536.76C1873.98 1405.7 1954.95 1092.64 2418.61 817.503C2418.61 817.503 2732.23 929.294 3137.96 683.885" stroke="white" stroke-width="0.5" stroke-miterlimit="10" stroke-linecap="round"/>
<path d="M1397.71 1536.76C1861.41 1427.33 1965.66 1143.28 2433.73 863.095C2433.73 863.095 2750.71 947.305 3137.96 683.885" stroke="white" stroke-width="0.5" stroke-miterlimit="10" stroke-linecap="round"/>
<path d="M1397.71 1536.76C1848.82 1448.96 1976.37 1193.94 2448.83 908.676C2448.83 908.676 2769.17 965.306 3137.96 683.885" stroke="white" stroke-width="0.5" stroke-miterlimit="10" stroke-linecap="round"/>
<path d="M1397.71 1536.76C1836.24 1470.6 1987.07 1244.6 2463.94 954.275C2463.94 954.275 2787.65 983.308 3137.96 683.885" stroke="white" stroke-width="0.5" stroke-miterlimit="10" stroke-linecap="round"/>
<path d="M1397.71 1536.76C1823.67 1492.24 1997.79 1295.27 2479.06 999.862C2479.06 999.862 2806.12 1001.31 3137.96 683.885" stroke="white" stroke-width="0.5" stroke-miterlimit="10" stroke-linecap="round"/>
<path d="M1397.71 1536.76C1811.1 1513.87 2008.5 1345.93 2494.16 1045.44C2494.16 1045.44 2824.57 1019.29 3137.96 683.885" stroke="white" stroke-width="0.5" stroke-miterlimit="10" stroke-linecap="round"/>
<path d="M1397.71 1536.76C1798.52 1535.51 2019.21 1396.58 2509.27 1091.04C2509.27 1091.04 2843.04 1037.3 3137.96 683.885" stroke="white" stroke-width="0.5" stroke-miterlimit="10" stroke-linecap="round"/>
<path d="M1397.71 1536.76C1785.95 1557.15 2029.92 1447.23 2524.39 1136.62C2524.39 1136.62 2861.52 1055.31 3137.96 683.885" stroke="white" stroke-width="0.5" stroke-miterlimit="10" stroke-linecap="round"/>
<path d="M1397.71 1536.76C1773.38 1578.78 2040.62 1497.89 2539.49 1182.21C2539.49 1182.21 2879.98 1073.31 3137.96 683.885" stroke="white" stroke-width="0.5" stroke-miterlimit="10" stroke-linecap="round"/>
<path d="M1397.71 1536.76C1760.81 1600.42 2051.35 1548.55 2554.61 1227.8C2554.61 1227.8 2898.46 1091.31 3137.96 683.885" stroke="white" stroke-width="0.5" stroke-miterlimit="10" stroke-linecap="round"/>
<path d="M1397.71 1536.76C1748.23 1622.05 2062.05 1599.2 2569.72 1273.4C2569.72 1273.4 2916.92 1109.3 3137.96 683.885" stroke="white" stroke-width="0.5" stroke-miterlimit="10" stroke-linecap="round"/>
<path d="M1397.71 1536.76C1735.64 1643.68 2072.75 1649.85 2584.83 1318.98C2584.83 1318.98 2935.38 1127.3 3137.96 683.885" stroke="white" stroke-width="0.5" stroke-miterlimit="10" stroke-linecap="round"/>
<path d="M1397.75 1536.62C1723.12 1665.18 2083.51 1700.38 2599.97 1364.49C2599.97 1364.49 2953.87 1145.25 3137.96 683.885" stroke="white" stroke-width="0.5" stroke-miterlimit="10" stroke-linecap="round"/>
<path d="M1397.74 1536.67C1710.53 1686.85 2094.2 1751.08 2615.07 1410.11C2615.07 1410.11 2972.34 1163.28 3137.96 683.885" stroke="white" stroke-width="0.5" stroke-miterlimit="10" stroke-linecap="round"/>
<path d="M1397.75 1536.64C1697.92 1708.43 2104.81 1801.66 2630.03 1455.62C2630.03 1455.62 2990.62 1181.21 3137.78 683.823" stroke="white" stroke-width="0.5" stroke-miterlimit="10" stroke-linecap="round"/>
<path d="M1397.71 1536.74C1685.29 1730.17 2115.45 1852.4 2645.03 1501.24C2645.03 1501.24 3008.95 1199.19 3137.67 683.786" stroke="white" stroke-width="0.5" stroke-miterlimit="10" stroke-linecap="round"/>
<path d="M40.6642 1602.98C83.1844 1637.87 126.719 1672 173.058 1703.94C950.115 2233.9 2001.73 2131.94 2645.01 1501.85" stroke="white" stroke-width="0.5" stroke-miterlimit="10" stroke-linecap="round"/>
<path d="M2645.01 1501.85C2335.38 1799.82 1941.75 1969.64 1534.04 2013.89C1492.09 2018.23 1450.05 2021.58 1407.93 2022.93C1266.98 2027.51 1127.32 2015.51 992.362 1995.5C903.397 1982.72 815.238 1964.52 728.521 1940.65C723.408 1939.24 718.307 1937.81 713.199 1936.39C708.534 1935.09 703.895 1933.75 699.224 1932.41C516.281 1878.93 337.153 1801.21 172.253 1696.74C134.91 1673.08 99.6678 1647.67 65.1567 1621.96C56.9087 1615.77 48.6995 1609.58 40.5458 1603.33" stroke="white" stroke-width="0.5" stroke-miterlimit="10" stroke-linecap="round"/>
<path d="M2645.01 1501.85C2328.02 1801.69 1933.12 1961.85 1529.41 1998.22C1487.59 2001.56 1445.75 2004.22 1403.94 2004.33C1261.35 2004.7 1122.94 1986.54 992.471 1967.19C903.022 1954.75 814.641 1937.47 727.932 1914.98C722.808 1913.67 717.7 1912.31 712.565 1910.97C707.893 1909.74 703.232 1908.53 698.555 1907.26C516.149 1857.41 336.237 1785.2 171.461 1689.45C134.224 1667.81 99.1719 1644.35 64.8997 1620.71C56.6769 1615.04 48.565 1609.32 40.453 1603.61" stroke="white" stroke-width="0.5" stroke-miterlimit="10" stroke-linecap="round"/>
<path d="M2645.01 1501.85C2320.79 1803.17 1924.75 1953.39 1525.06 1981.71C1483.37 1984.05 1441.73 1985.98 1400.25 1984.85C1255.99 1980.9 1118.89 1956.6 992.926 1937.9C902.995 1925.8 814.421 1909.42 727.697 1888.28C722.545 1887.05 717.432 1885.76 712.286 1884.51C707.602 1883.37 702.93 1882.24 698.247 1881.04C516.504 1834.53 335.774 1768.17 171.038 1681.12C133.921 1661.52 99.0679 1639.98 64.9875 1618.43C56.817 1613.27 48.7682 1608.07 40.7084 1602.85" stroke="white" stroke-width="0.5" stroke-miterlimit="10" stroke-linecap="round"/>
<path d="M2645.01 1501.85C2313.39 1805.05 1916.13 1945.62 1520.41 1966.07C1478.85 1967.42 1437.39 1968.6 1396.24 1966.28C1250.21 1958.02 1114.48 1927.66 993.007 1909.64C902.607 1897.88 813.845 1882.21 727.079 1862.67C721.92 1861.51 716.796 1860.31 711.621 1859.15C706.91 1858.08 702.243 1857.05 697.548 1855.94C516.47 1812.74 334.979 1752.25 170.228 1673.89C133.257 1656.31 98.6039 1636.67 64.7068 1617.25C56.5836 1612.6 48.5932 1607.88 40.5973 1603.18" stroke="white" stroke-width="0.5" stroke-miterlimit="10" stroke-linecap="round"/>
<path d="M2645.01 1501.85C2306.09 1806.76 1907.59 1937.56 1515.9 1950.06C1474.48 1950.41 1433.17 1950.83 1392.39 1947.32C1244.55 1934.62 1110.23 1898.29 993.272 1880.93C902.391 1869.51 813.427 1854.71 726.643 1836.58C721.457 1835.5 716.343 1834.38 711.141 1833.3C706.418 1832.32 701.74 1831.38 697.039 1830.34C516.654 1790.42 334.462 1735.82 169.608 1666.14C132.798 1650.58 98.3236 1632.87 64.6038 1615.54C56.5443 1611.41 48.6068 1607.19 40.6636 1602.98" stroke="white" stroke-width="0.5" stroke-miterlimit="10" stroke-linecap="round"/>
<path d="M2645.01 1501.85C2298.75 1808.53 1899.04 1929.59 1511.33 1934.18C1470.02 1933.54 1428.88 1933.13 1388.46 1928.49C1238.75 1911.29 1105.92 1869.07 993.45 1852.38C902.081 1841.31 812.896 1827.38 726.126 1810.67C720.934 1809.66 715.792 1808.62 710.589 1807.65C705.86 1806.75 701.181 1805.92 696.453 1804.96C516.767 1768.3 333.964 1719.63 168.894 1658.63C132.25 1645.08 97.9535 1629.29 64.4162 1614.08C56.4094 1610.45 48.5354 1606.75 40.6449 1603.04" stroke="white" stroke-width="0.5" stroke-miterlimit="10" stroke-linecap="round"/>
<path d="M2645.01 1501.85C2291.41 1810.33 1890.45 1921.67 1506.76 1918.34C1465.59 1916.69 1424.58 1915.47 1384.54 1909.72C1232.93 1887.93 1101.6 1839.9 993.635 1823.88C901.783 1813.14 812.389 1800.09 725.624 1784.79C720.42 1783.88 715.272 1782.9 710.041 1782.01C705.301 1781.2 700.61 1780.46 695.876 1779.57C516.897 1746.16 333.562 1703.4 168.201 1651.1C131.757 1639.57 97.6005 1625.7 64.2408 1612.59C56.2812 1609.47 48.4823 1606.25 40.6334 1603.07" stroke="white" stroke-width="0.5" stroke-miterlimit="10" stroke-linecap="round"/>
<path d="M2645.01 1501.85C2284.11 1812 1881.96 1913.57 1502.27 1902.28C1461.21 1899.63 1420.37 1897.54 1380.69 1890.7C1227.15 1864.25 1097.38 1810.48 993.907 1795.13C901.57 1784.74 811.969 1772.58 725.194 1758.67C719.963 1757.83 714.826 1756.94 709.566 1756.13C704.798 1755.4 700.113 1754.75 695.351 1753.95C517.09 1723.76 333.327 1686.89 167.568 1643.33C131.347 1633.81 97.3304 1621.88 64.1432 1610.86C56.2365 1608.24 48.4848 1605.54 40.7054 1602.86" stroke="white" stroke-width="0.5" stroke-miterlimit="10" stroke-linecap="round"/>
<path d="M2645.01 1501.85C2276.75 1813.81 1873.38 1905.65 1497.69 1886.46C1456.76 1882.83 1416.06 1879.83 1376.76 1871.94C1221.28 1840.72 1093.06 1781.33 994.087 1766.64C901.267 1756.58 811.441 1745.31 724.681 1732.82C719.443 1732.06 714.278 1731.25 709.008 1730.53C704.228 1729.89 699.531 1729.32 694.763 1728.59C517.242 1701.6 333.092 1670.62 166.864 1635.83C130.887 1628.32 97.0048 1618.32 63.951 1609.42C56.108 1607.31 48.4147 1605.09 40.6825 1602.93" stroke="white" stroke-width="0.5" stroke-miterlimit="10" stroke-linecap="round"/>
<path d="M2645.01 1501.85C2269.42 1815.57 1864.82 1897.67 1493.12 1870.57C1452.32 1865.93 1411.76 1862.01 1372.84 1853.11C1215.4 1817.05 1088.73 1752.1 994.271 1738.08C900.968 1728.35 810.926 1717.98 724.158 1706.87C718.909 1706.2 713.738 1705.46 708.45 1704.84C703.659 1704.29 698.951 1703.81 694.171 1703.17C517.395 1679.36 332.943 1654.21 166.162 1628.28C130.441 1622.73 96.6698 1614.69 63.7819 1607.9C55.9917 1606.29 48.362 1604.59 40.6825 1602.93" stroke="white" stroke-width="0.5" stroke-miterlimit="10" stroke-linecap="round"/>
<path d="M2645.01 1501.85C2262.09 1817.33 1856.26 1889.69 1488.58 1854.68C1447.9 1849.05 1407.48 1844.19 1368.93 1834.27C1209.54 1793.27 1084.44 1722.87 994.468 1709.52C900.678 1700.14 810.429 1690.65 723.665 1680.95C718.388 1680.36 713.228 1679.7 707.912 1679.16C703.115 1678.68 698.412 1678.3 693.604 1677.74C517.565 1657.09 332.894 1637.7 165.485 1620.7C130.025 1617.1 96.3721 1611.05 63.6179 1606.37C55.8971 1605.27 48.2982 1604.07 40.6825 1602.93" stroke="white" stroke-width="0.5" stroke-miterlimit="10" stroke-linecap="round"/>
<path d="M2645.01 1501.85C2254.76 1819.12 1847.71 1881.77 1484.02 1838.81C1443.49 1832.18 1403.21 1826.35 1365.03 1815.45C1203.72 1769.42 1080.15 1693.66 994.68 1680.97C900.408 1671.92 809.923 1663.35 723.175 1655.02C717.887 1654.52 712.71 1653.9 707.377 1653.48C702.552 1653.08 697.854 1652.79 693.035 1652.32C517.743 1634.8 332.907 1621.12 164.798 1613.15C129.622 1611.49 96.0748 1607.41 63.4484 1604.86C55.7805 1604.25 48.251 1603.56 40.6825 1602.93" stroke="white" stroke-width="0.5" stroke-miterlimit="10" stroke-linecap="round"/>
<path d="M2645.01 1501.85C2247.41 1820.87 1839.15 1873.79 1479.46 1822.91C1439.03 1815.29 1398.91 1808.46 1361.1 1796.62C1197.87 1745.48 1075.84 1664.44 994.861 1652.42C900.107 1643.71 809.402 1636.06 722.665 1629.11C717.349 1628.69 712.182 1628.16 706.821 1627.81C701.985 1627.5 697.275 1627.3 692.45 1626.9C517.928 1612.5 332.927 1604.42 164.1 1605.58C129.218 1605.83 95.761 1603.77 63.279 1603.35C55.6748 1603.26 48.1981 1603.06 40.6825 1602.93" stroke="white" stroke-width="0.5" stroke-miterlimit="10" stroke-linecap="round"/>
<path d="M2645.01 1501.85C2240.08 1822.64 1830.61 1865.82 1474.91 1807.04C1434.62 1798.43 1394.67 1790.57 1357.21 1777.8C1192.1 1721.45 1071.57 1635.22 995.086 1623.86C899.846 1615.51 808.928 1608.76 722.191 1603.18C716.869 1602.83 711.691 1602.38 706.297 1602.13C701.454 1601.89 696.728 1601.8 691.875 1601.48C518.119 1590.16 332.993 1587.62 163.412 1598.04C128.83 1600.17 95.4687 1600.11 63.1093 1601.84C55.5802 1602.23 48.1343 1602.54 40.6825 1602.93" stroke="white" stroke-width="0.5" stroke-miterlimit="10" stroke-linecap="round"/>
<path d="M2645.01 1501.85C2232.75 1824.41 1822.02 1857.86 1470.34 1791.15C1430.17 1781.53 1390.39 1772.67 1353.28 1758.96C1186.31 1697.32 1067.23 1605.99 995.254 1595.31C899.547 1587.29 808.374 1581.45 721.661 1577.26C716.328 1577 711.127 1576.61 705.738 1576.46C700.884 1576.31 696.168 1576.3 691.287 1576.06C518.28 1567.79 333.026 1570.68 162.716 1590.47C128.429 1594.45 95.1673 1596.44 62.946 1600.31C55.4695 1601.2 48.0872 1602.03 40.6825 1602.93" stroke="white" stroke-width="0.5" stroke-miterlimit="10" stroke-linecap="round"/>
<path d="M2645.01 1501.85C2225.42 1826.18 1813.47 1849.89 1465.78 1775.26C1425.75 1764.65 1386.14 1754.73 1349.37 1740.14C1180.59 1673.13 1062.93 1576.77 995.457 1566.75C899.268 1559.07 807.875 1554.15 721.178 1551.32C715.816 1551.14 710.627 1550.84 705.209 1550.77C700.344 1550.71 695.616 1550.78 690.724 1550.63C518.493 1545.41 333.074 1553.62 162.035 1582.91C128.026 1588.73 94.8812 1592.77 62.7765 1598.79C55.3695 1600.19 48.0344 1601.53 40.6825 1602.93" stroke="white" stroke-width="0.5" stroke-miterlimit="10" stroke-linecap="round"/>
<path d="M2645.01 1501.85C2218.08 1827.95 1804.91 1841.93 1461.22 1759.39C1421.32 1747.8 1381.89 1736.81 1345.46 1721.32C1174.93 1648.86 1058.64 1547.56 995.653 1538.22C898.975 1530.88 807.363 1526.89 720.664 1525.42C715.291 1525.33 710.096 1525.1 704.65 1525.12C699.757 1525.13 695.04 1525.28 690.136 1525.22C518.652 1523.02 333.042 1536.47 161.331 1575.35C127.612 1582.99 94.5789 1589.09 62.6072 1597.28C55.2529 1599.17 47.9706 1601.01 40.6825 1602.93" stroke="white" stroke-width="0.5" stroke-miterlimit="10" stroke-linecap="round"/>
<path d="M2645.01 1501.85C2210.74 1829.73 1796.35 1833.99 1456.66 1743.51C1416.87 1730.9 1377.64 1718.84 1341.55 1702.49C1169.31 1624.5 1054.34 1518.33 995.854 1509.65C898.695 1502.65 806.858 1499.59 720.18 1499.48C714.796 1499.48 709.578 1499.31 704.121 1499.41C699.216 1499.52 694.488 1499.76 689.573 1499.79C518.865 1500.57 332.976 1519.2 160.65 1567.79C127.209 1577.21 94.2819 1585.39 62.4378 1595.77C55.1585 1598.14 47.9178 1600.52 40.6825 1602.93" stroke="white" stroke-width="0.5" stroke-miterlimit="10" stroke-linecap="round"/>
<path d="M2645.01 1501.85C2203.4 1831.49 1787.79 1826.01 1452.1 1727.61C1412.45 1714.02 1373.42 1700.86 1337.63 1683.66C1163.73 1600.07 1050.03 1489.11 996.046 1481.09C898.399 1474.44 806.341 1472.3 719.662 1473.55C714.25 1473.63 709.042 1473.54 703.568 1473.75C698.658 1473.93 693.918 1474.25 688.991 1474.37C519.024 1478.13 332.813 1501.85 159.952 1560.22C126.757 1571.42 93.9576 1581.67 62.274 1594.24C55.0531 1597.1 47.8762 1599.99 40.6825 1602.93" stroke="white" stroke-width="0.5" stroke-miterlimit="10" stroke-linecap="round"/>
<path d="M2645.01 1501.85C2196.07 1833.28 1779.24 1818.04 1447.54 1711.74C1408.01 1697.13 1369.2 1682.89 1333.72 1664.83C1158.24 1575.58 1045.73 1459.89 996.245 1452.54C898.116 1446.23 805.849 1445.03 719.175 1447.63C713.751 1447.8 708.538 1447.78 703.036 1448.07C698.114 1448.34 693.362 1448.75 688.424 1448.96C519.211 1455.66 332.577 1484.43 159.265 1552.67C126.299 1565.65 93.6386 1577.99 62.1046 1592.73C54.9365 1596.08 47.8234 1599.49 40.6825 1602.93" stroke="white" stroke-width="0.5" stroke-miterlimit="10" stroke-linecap="round"/>
<path d="M2645.01 1501.85C2188.73 1835.05 1770.66 1810.1 1442.98 1695.87C1403.58 1680.28 1365.01 1664.92 1329.81 1646.02C1152.81 1551.03 1041.43 1430.67 996.447 1423.99C897.835 1418.01 805.337 1417.76 718.668 1421.71C713.232 1421.97 707.997 1422.02 702.483 1422.39C697.533 1422.74 692.792 1423.24 687.842 1423.53C519.388 1433.17 332.238 1466.94 158.585 1545.1C125.852 1559.84 93.331 1574.27 61.9354 1591.21C54.8256 1595.05 47.7541 1598.99 40.6825 1602.93" stroke="white" stroke-width="0.5" stroke-miterlimit="10" stroke-linecap="round"/>
<path d="M2645.01 1501.85C2181.39 1836.81 1762.12 1802.12 1438.43 1679.98C1399.17 1663.39 1360.82 1646.9 1325.9 1627.2C1147.44 1526.43 1037.13 1401.46 996.643 1395.45C897.544 1389.82 804.843 1390.5 718.178 1395.79C712.715 1396.13 707.489 1396.26 701.948 1396.72C696.987 1397.16 692.251 1397.74 687.257 1398.11C519.534 1410.65 331.802 1449.4 157.881 1537.55C125.344 1554.05 92.9787 1570.58 61.7659 1589.7C54.709 1594.03 47.7068 1598.47 40.6825 1602.93" stroke="white" stroke-width="0.5" stroke-miterlimit="10" stroke-linecap="round"/>
<path d="M2645.01 1501.85C2174.06 1838.58 1753.57 1794.16 1433.86 1664.1C1394.72 1646.51 1356.65 1628.9 1321.99 1608.36C1142.13 1501.77 1032.83 1372.24 996.842 1366.89C897.262 1361.59 804.33 1363.23 717.687 1369.87C712.218 1370.28 706.981 1370.5 701.406 1371.06C696.439 1371.56 691.691 1372.24 686.686 1372.7C519.701 1388.12 331.295 1431.86 157.199 1529.99C124.847 1548.22 92.6375 1566.86 61.5963 1588.19C54.5979 1593 47.654 1597.98 40.6825 1602.93" stroke="white" stroke-width="0.5" stroke-miterlimit="10" stroke-linecap="round"/>
<path d="M2645.01 1501.85C2166.73 1840.34 1745.01 1786.18 1429.32 1648.19C1390.3 1629.62 1352.48 1610.88 1318.07 1589.51C1136.89 1477.02 1028.53 1342.99 997.032 1338.31C896.97 1333.35 803.819 1335.96 717.169 1343.93C711.688 1344.43 706.435 1344.69 700.86 1345.36C695.881 1345.96 691.122 1346.72 686.105 1347.27C519.825 1365.56 330.677 1414.26 156.5 1522.42C124.312 1542.41 92.2907 1563.15 61.4324 1586.66C54.476 1591.94 47.5902 1597.46 40.6825 1602.93" stroke="white" stroke-width="0.5" stroke-miterlimit="10" stroke-linecap="round"/>
<path d="M2645.01 1501.85C2159.39 1842.13 1736.45 1778.25 1424.75 1632.33C1385.86 1612.75 1348.33 1592.89 1314.15 1570.71C1131.72 1452.3 1024.23 1313.8 997.227 1309.78C896.677 1305.17 803.316 1308.72 716.677 1318.02C711.168 1318.6 705.925 1318.95 700.321 1319.7C695.315 1320.38 690.567 1321.22 685.538 1321.85C519.972 1342.99 329.998 1396.68 155.815 1514.87C123.789 1536.61 91.9392 1559.45 61.2633 1585.14C54.3595 1590.93 47.5431 1596.94 40.6825 1602.93" stroke="white" stroke-width="0.5" stroke-miterlimit="10" stroke-linecap="round"/>
<path d="M2645.01 1501.85C2152.04 1843.89 1727.88 1770.28 1420.19 1616.45C1381.43 1595.88 1344.18 1574.87 1310.24 1551.88C1126.62 1427.5 1019.91 1284.56 997.421 1281.21C896.388 1276.94 802.812 1281.45 716.16 1292.09C710.64 1292.76 705.391 1293.17 699.759 1294.01C694.741 1294.78 689.987 1295.69 684.941 1296.43C520.073 1320.4 329.212 1379.1 155.118 1507.3C123.237 1530.78 91.582 1555.72 61.094 1583.63C54.2487 1589.9 47.4903 1596.45 40.6825 1602.93" stroke="white" stroke-width="0.5" stroke-miterlimit="10" stroke-linecap="round"/>
<path d="M2645.01 1501.85C2144.71 1845.66 1719.33 1762.31 1415.63 1600.57C1377.01 1579 1340.05 1556.87 1306.33 1533.05C1121.6 1402.65 1015.62 1255.34 997.62 1252.67C896.116 1248.75 802.353 1254.36 715.673 1266.17C710.135 1266.94 704.87 1267.4 699.221 1268.34C694.197 1269.18 689.432 1270.18 684.374 1271.01C520.194 1297.8 328.381 1361.53 154.431 1499.75C122.675 1524.99 91.2078 1552.03 60.9247 1582.12C54.1156 1588.87 47.4265 1595.93 40.6825 1602.93" stroke="white" stroke-width="0.5" stroke-miterlimit="10" stroke-linecap="round"/>
<path d="M2645.01 1501.85C2137.39 1847.42 1710.77 1754.34 1411.07 1584.67C1372.56 1562.11 1335.93 1538.83 1302.41 1514.22C1116.63 1377.8 1011.32 1226.13 997.818 1224.11C895.832 1220.52 801.85 1227.05 715.164 1240.24C709.615 1241.1 704.344 1241.64 698.668 1242.66C693.615 1243.58 688.844 1244.65 683.787 1245.59C520.246 1275.06 327.489 1343.98 153.737 1492.17C122.088 1519.16 90.8494 1548.3 60.7605 1580.59C54.0043 1587.84 47.3792 1595.42 40.6825 1602.93" stroke="white" stroke-width="0.5" stroke-miterlimit="10" stroke-linecap="round"/>
<path d="M2645.01 1501.85C2130.05 1849.2 1702.22 1746.38 1406.51 1568.8C1368.14 1545.25 1331.82 1520.83 1298.5 1495.4C1111.75 1352.92 1007.02 1196.91 998.015 1195.57C895.548 1192.32 801.345 1199.77 714.675 1214.32C709.103 1215.25 703.826 1215.86 698.149 1216.99C693.091 1217.99 688.303 1219.16 683.223 1220.17C520.407 1252.72 326.537 1326.44 153.051 1484.62C121.504 1513.37 90.4755 1544.62 60.5912 1579.08C53.8769 1586.8 47.3264 1594.92 40.6825 1602.93" stroke="white" stroke-width="0.5" stroke-miterlimit="10" stroke-linecap="round"/>
<path d="M2645.01 1501.85C2122.71 1850.98 1693.64 1738.43 1401.96 1552.92C1363.7 1528.36 1327.73 1502.81 1294.6 1476.57C1106.92 1328 1002.73 1167.68 998.223 1167C895.268 1164.1 800.851 1172.45 714.189 1188.4C708.606 1189.41 703.323 1190.09 697.618 1191.31C692.549 1192.39 687.754 1193.64 682.657 1194.75C520.441 1229.88 325.555 1308.94 152.365 1477.07C120.915 1507.6 90.0637 1540.89 60.4222 1577.56C53.7441 1585.78 47.2628 1594.4 40.6825 1602.93" stroke="white" stroke-width="0.5" stroke-miterlimit="10" stroke-linecap="round"/>
<path d="M2645.01 1501.85C2115.37 1852.73 1685.1 1730.47 1397.41 1537.02C1359.28 1511.48 1323.68 1484.74 1290.69 1457.75C1102.4 1302.82 998.419 1138.46 998.419 1138.46C894.982 1135.89 800.346 1145.17 713.684 1162.47C708.089 1163.58 702.795 1164.35 697.062 1165.64C691.981 1166.81 687.192 1168.16 682.072 1169.33C491.431 1215.04 252.191 1323.2 60.2524 1576.05C53.6272 1584.77 47.2098 1593.9 40.6825 1602.93" stroke="white" stroke-width="0.5" stroke-miterlimit="10" stroke-linecap="round"/>
</svg>
